<?xml version="1.0" encoding="utf-8"?>
<svg version="1.1" id="access42" xmlns="http://www.w3.org/2000/svg" xmlns:xlink="http://www.w3.org/1999/xlink" x="0px" y="0px"
	 viewBox="0 0 58 43" style="enable-background:new 0 0 58 43;" xml:space="preserve">
<style type="text/css">
	.st0{fill:#151D34;}
</style>
<g id="access42_1_">
	<g>
		<path class="st0" d="M43.1,25.5c-1.5,0-3-0.5-4.1-1.3c2.4-2.4,3.8-5.8,3.8-9.4c0-7.5-6.1-13.6-13.6-13.6c-3.3,0-6.3,1.2-8.7,3.1
			c-1.4-1.1-3.3-1.8-5.3-1.8V4c1.5,0,3,0.5,4.1,1.3c-2.4,2.4-3.8,5.8-3.8,9.4c0,7.5,6.1,13.6,13.6,13.6c3.3,0,6.3-1.2,8.7-3.1
			c1.4,1.1,3.3,1.8,5.3,1.8V25.5z M17.1,14.8c0-3.3,1.3-6.2,3.4-8.4c1.1,1.2,1.7,2.9,1.7,4.6v2c0,4.4,3.4,8.1,7.8,8.5v1.8h1.5v-6.6
			h-1.5V20c-3.5-0.4-6.2-3.4-6.2-7v-2c0-2.2-0.8-4.1-2.2-5.7c2.1-1.7,4.7-2.6,7.5-2.6c6.7,0,12.1,5.4,12.1,12.1
			c0,3.3-1.3,6.2-3.4,8.4c-1.1-1.2-1.7-2.9-1.7-4.6v-2c0-4.7-3.8-8.5-8.5-8.5h-0.8v4.8h1.5V9.6c3.5,0.4,6.2,3.4,6.2,7v2
			c0,2.2,0.8,4.1,2.2,5.7c-2.1,1.7-4.7,2.6-7.5,2.6C22.5,26.9,17.1,21.4,17.1,14.8z"/>
		<g>
			<g>
				<path class="st0" d="M3.5,38.9l-1,2.8H1l3.5-9.5H6l3.5,9.5H8l-1-2.8H3.5z M5.3,33.7l-1.3,3.9h2.6L5.3,33.7z"/>
				<path class="st0" d="M15.7,36.5c-0.3-0.3-1-0.8-1.9-0.8c-1.3,0-2.2,1-2.2,2.4c0,1.4,1,2.4,2.3,2.4c0.9,0,1.6-0.5,1.9-0.8
					l0.4,1.2c-0.4,0.3-1.2,0.9-2.4,0.9c-2.2,0-3.7-1.6-3.7-3.7c0-2.1,1.6-3.7,3.7-3.7c1.2,0,2,0.5,2.4,0.9L15.7,36.5z"/>
				<path class="st0" d="M22.5,36.5c-0.3-0.3-1-0.8-1.9-0.8c-1.3,0-2.2,1-2.2,2.4c0,1.4,1,2.4,2.3,2.4c0.9,0,1.6-0.5,1.9-0.8
					l0.4,1.2c-0.4,0.3-1.2,0.9-2.4,0.9c-2.2,0-3.7-1.6-3.7-3.7c0-2.1,1.6-3.7,3.7-3.7c1.2,0,2,0.5,2.4,0.9L22.5,36.5z"/>
				<path class="st0" d="M27.2,34.4c2.2,0,3.4,1.5,3.4,3.7c0,0.1,0,0.2,0,0.4h-5.4c0,1.3,0.9,2.1,2.2,2.1c1.1,0,1.7-0.6,2-1l1,0.7
					c-0.3,0.6-1.3,1.6-3,1.6c-2.2,0-3.7-1.6-3.7-3.7C23.7,35.9,25.2,34.4,27.2,34.4z M29.1,37.4c-0.1-1.2-0.9-1.8-1.9-1.8
					s-1.8,0.7-1.9,1.8H29.1z"/>
				<path class="st0" d="M32.2,39.7c0.3,0.5,0.8,0.9,1.7,0.9c0.6,0,1.1-0.3,1.1-0.9c0-1.4-3.5-0.9-3.5-3.3c0-1.3,1.1-2,2.4-2
					c1.3,0,2,0.8,2.3,1.3l-1,0.7c-0.2-0.3-0.6-0.8-1.4-0.8c-0.5,0-1,0.3-1,0.8c0,1.4,3.5,0.8,3.5,3.3c0,1.3-1.1,2.2-2.6,2.2
					c-1.4,0-2.2-0.8-2.6-1.4L32.2,39.7z"/>
				<path class="st0" d="M38,39.7c0.3,0.5,0.8,0.9,1.7,0.9c0.6,0,1.1-0.3,1.1-0.9c0-1.4-3.5-0.9-3.5-3.3c0-1.3,1.1-2,2.4-2
					c1.3,0,2,0.8,2.3,1.3l-1,0.7c-0.2-0.3-0.6-0.8-1.4-0.8c-0.5,0-1,0.3-1,0.8c0,1.4,3.5,0.8,3.5,3.3c0,1.3-1.1,2.2-2.6,2.2
					c-1.4,0-2.2-0.8-2.6-1.4L38,39.7z"/>
				<path class="st0" d="M43,38.2l4.1-6.1h1.7V38H50v1.3h-1.2v2.3h-1.5v-2.3H43V38.2z M47.3,38v-4.1L44.6,38H47.3z"/>
				<path class="st0" d="M51,41.1c0-2.7,4.4-4.2,4.4-6.3c0-0.8-0.5-1.4-1.5-1.4c-0.9,0-1.4,0.6-1.6,1.3L51,34.2
					c0.2-0.9,1-2.3,2.9-2.3c1.8,0,3,1.1,3,2.8c0,2.7-3.9,4.1-4.1,5.6H57v1.3h-6V41.1z"/>
			</g>
		</g>
	</g>
</g>
</svg>
